<svg xmlns="http://www.w3.org/2000/svg" viewBox="0 0 300 300">
      <rect width="100%" height="100%" rx="0" fill="#2E94D4" />
      <path
        d="M56.2239 129.063C69.2711 109.291 85.0918 89.9627 99.5824 71.2253C100.488 70.0234 101.054 69.1368 101.28 68.5654C102.186 66.1617 101.394 64.9598 98.9031 64.9598L59.5635 65.0189C59.0781 65.0191 58.5976 64.9175 58.1505 64.7201C57.7035 64.5226 57.299 64.2333 56.961 63.8694C56.6231 63.5055 56.3587 63.0744 56.1834 62.6017C56.0082 62.129 55.9257 61.6244 55.9409 61.1177L55.9692 59.9356C56.0635 56.6452 57.6862 55 60.8371 55H115.347C116.214 54.9994 117.069 55.2663 117.809 55.7684C120.299 57.522 120.507 59.8568 118.431 62.7728C104.054 83.047 89.2145 102.967 73.9126 122.531C73.5541 123.004 73.2899 123.458 73.1201 123.891C73.0003 124.209 72.9566 124.553 72.993 124.892C73.0293 125.232 73.1445 125.557 73.3286 125.84C73.5127 126.122 73.7601 126.354 74.0493 126.514C74.3385 126.674 74.6608 126.757 74.988 126.758L117.639 126.728C118.188 126.728 118.731 126.849 119.231 127.084C119.731 127.319 120.177 127.663 120.539 128.091C120.901 128.519 121.17 129.023 121.329 129.567C121.488 130.112 121.532 130.686 121.46 131.25L121.233 133.023C121.09 134.11 120.573 135.107 119.777 135.829C118.981 136.551 117.961 136.951 116.903 136.954L60.1579 136.924C59.2853 136.927 58.4295 136.679 57.6831 136.207C56.9367 135.736 56.328 135.059 55.923 134.249C55.5179 133.44 55.3318 132.529 55.3848 131.614C55.4379 130.7 55.728 129.818 56.2239 129.063Z"
        fill="white"
      />
      <path
        d="M136.007 113.872C135.429 113.994 134.895 114.281 134.463 114.7C134.031 115.12 133.719 115.656 133.561 116.249C133.403 116.843 133.405 117.47 133.567 118.063C133.729 118.655 134.045 119.189 134.479 119.605C146.564 131.25 155.819 128.708 169.149 122.708C169.998 122.334 170.838 122.354 171.668 122.768C175.064 124.541 175.036 128.885 172.205 131.368C162.611 139.879 145.092 138.934 135.102 133.318C120.3 124.984 116.139 103.794 124.517 89.1053C137.734 65.9938 174.073 70.0428 179.055 97.5873C180.13 103.557 176.847 105.626 171.922 106.572C159.488 108.976 147.517 111.409 136.007 113.872ZM132.3 106.276L168.073 98.9468C168.166 98.9255 168.248 98.8674 168.3 98.7847C168.353 98.7021 168.373 98.6013 168.356 98.5035L168.328 98.3853C167.89 96.0501 166.999 93.8315 165.703 91.8562C164.408 89.8809 162.735 88.1876 160.78 86.873C158.825 85.5584 156.625 84.6483 154.307 84.1946C151.99 83.7409 149.599 83.7525 147.271 84.2288L146.224 84.4652C141.527 85.4284 137.375 88.2233 134.679 92.2356C131.983 96.2479 130.964 101.149 131.847 105.863V105.981C131.857 106.032 131.877 106.08 131.905 106.123C131.934 106.166 131.97 106.203 132.013 106.23C132.055 106.258 132.102 106.276 132.152 106.284C132.201 106.292 132.251 106.289 132.3 106.276Z"
        fill="white"
      />
      <path
        d="M200.507 81.1259C203.479 79.1162 205.97 76.6928 209.224 75.5993C220.743 71.8163 235.177 74.358 241.149 85.9433C246.639 96.5237 244.347 119.812 243.894 133.112C243.857 134.175 243.43 135.183 242.701 135.921C241.973 136.66 241 137.073 239.989 137.072H238.715C235.036 137.072 233.224 135.151 233.281 131.309C233.451 121.054 235.715 96.4941 229.205 89.2238C222.045 81.2146 206.451 83.6676 201.215 93.2136C196.8 101.252 198.724 122.177 198.526 132.639C198.504 133.81 198.039 134.923 197.233 135.737C196.427 136.551 195.345 136.999 194.224 136.983H193.092C189.413 136.924 187.583 134.974 187.602 131.132L187.856 78.7025C187.855 77.8656 188.126 77.0532 188.625 76.3981C189.124 75.7431 189.821 75.2843 190.602 75.0968C194.866 74.0723 197.432 75.7569 198.3 80.1506C198.583 81.6086 199.319 81.9337 200.507 81.1259Z"
        fill="white"
      />
      <path
        d="M55.2339 188.881L55.2622 161.691C55.2622 160.029 55.8973 158.435 57.0278 157.26C58.1583 156.085 59.6917 155.425 61.2905 155.425L239.932 155.514C241.068 155.522 242.155 155.995 242.956 156.831C243.756 157.668 244.206 158.798 244.206 159.977L244.234 188.822C244.235 189.099 244.294 189.373 244.405 189.626C244.516 189.878 244.677 190.102 244.878 190.284C245.079 190.466 245.315 190.601 245.57 190.68C245.825 190.759 246.093 190.781 246.357 190.743C250.394 190.171 254.46 190.358 258.555 191.304C260.078 191.653 261.42 192.59 262.312 193.926C263.204 195.263 263.58 196.902 263.366 198.515C262.206 207.5 252.017 206.081 245.96 205.579C245.739 205.563 245.517 205.594 245.308 205.672C245.099 205.749 244.908 205.87 244.746 206.028C244.584 206.187 244.455 206.378 244.367 206.59C244.278 206.803 244.233 207.032 244.234 207.263L244.177 238.591C244.17 240.067 243.603 241.48 242.601 242.522C241.598 243.563 240.242 244.147 238.828 244.147H60.8942C60.1546 244.147 59.4223 243.995 58.7389 243.699C58.0556 243.404 57.4348 242.971 56.9118 242.425C56.3888 241.878 55.9739 241.23 55.6909 240.517C55.4079 239.803 55.2622 239.038 55.2622 238.266V207.086C55.2622 206.655 55.0952 206.242 54.798 205.937C54.5007 205.632 54.0976 205.461 53.6773 205.461L43.432 205.49C38.998 205.51 36.8565 203.205 37.0075 198.575L37.0641 197.54C37.215 192.949 39.498 190.634 43.9131 190.595L53.649 190.536C54.7056 190.516 55.2339 189.964 55.2339 188.881ZM116.932 201.234C116.79 192.25 116.96 183.265 116.904 174.931C116.904 172.882 115.923 171.848 113.96 171.828L108.385 171.769C107.936 171.761 107.491 171.847 107.074 172.021C106.658 172.196 106.278 172.455 105.957 172.785C105.636 173.114 105.38 173.508 105.204 173.942C105.028 174.377 104.936 174.843 104.932 175.315L104.819 205.904C104.812 207.275 104.542 208.63 104.023 209.89C103.505 211.149 102.749 212.287 101.801 213.235C100.854 214.184 99.7328 214.924 98.5057 215.411C97.2786 215.898 95.9702 216.122 94.6584 216.071L91.4886 215.923C89.5537 215.854 87.7192 215.007 86.3688 213.558C85.0184 212.11 84.2568 210.172 84.2433 208.15L83.9886 173.867C83.9886 173.597 83.9372 173.329 83.8373 173.08C83.7374 172.831 83.591 172.604 83.4066 172.415C83.2223 172.225 83.0037 172.075 82.7635 171.975C82.5233 171.874 82.2663 171.824 82.0075 171.828L74.2244 171.857C72.7527 171.857 71.998 172.636 71.9603 174.192C71.432 193.225 71.5735 205.254 72.3848 210.278C76.3471 235.192 117.555 234.187 116.932 201.234ZM139.29 196.653C139.687 196.988 140.177 197.826 140.762 199.166C144.045 206.712 147.375 213.667 150.753 220.031C151.23 220.919 151.932 221.655 152.781 222.158C153.63 222.66 154.593 222.909 155.566 222.879C156.54 222.848 157.484 222.539 158.298 221.984C159.111 221.43 159.761 220.652 160.177 219.735L170.253 197.747C171.951 194.043 172.79 194.24 172.772 198.338L172.658 225.617C172.64 226.582 173.102 227.075 174.045 227.094L183.272 227.124C183.647 227.124 184.007 226.971 184.272 226.7C184.538 226.428 184.687 226.06 184.687 225.676L184.658 173.66C184.658 172.518 184.102 171.946 182.989 171.946L170.479 172.005C169.177 172.005 168.253 172.626 167.706 173.867L156.3 199.727C156.212 199.92 156.075 200.084 155.903 200.2C155.731 200.317 155.533 200.38 155.33 200.383C155.128 200.386 154.931 200.329 154.762 200.218C154.592 200.107 154.458 199.947 154.375 199.757L142.687 173.601C142.234 172.577 141.47 172.054 140.394 172.035L127.743 171.739C127.508 171.731 127.274 171.773 127.054 171.861C126.835 171.95 126.635 172.084 126.466 172.255C126.297 172.426 126.162 172.63 126.071 172.856C125.979 173.083 125.932 173.326 125.932 173.572L125.989 225.705C125.989 226.69 126.46 227.183 127.404 227.183L136.658 227.065C137.583 227.045 138.036 226.553 138.017 225.587L137.79 197.599C137.79 196.122 138.29 195.806 139.29 196.653ZM207.13 215.568C206.903 215.568 206.679 215.522 206.469 215.431C206.26 215.34 206.07 215.208 205.909 215.04C205.749 214.873 205.622 214.674 205.535 214.455C205.448 214.237 205.404 214.002 205.404 213.765L205.63 173.631C205.63 173.153 205.448 172.694 205.124 172.356C204.801 172.018 204.362 171.828 203.904 171.828L195.441 171.739C195.21 171.735 194.98 171.78 194.765 171.871C194.551 171.961 194.356 172.096 194.192 172.267C194.028 172.438 193.899 172.642 193.812 172.866C193.726 173.09 193.683 173.33 193.687 173.572L193.885 225.351C193.885 225.829 194.067 226.287 194.39 226.625C194.714 226.964 195.153 227.153 195.611 227.153L226.121 227.124C226.569 227.124 227 226.942 227.322 226.617C227.644 226.292 227.832 225.848 227.847 225.38L228.158 217.519C228.166 217.277 228.127 217.036 228.044 216.811C227.96 216.585 227.834 216.379 227.673 216.206C227.512 216.032 227.319 215.894 227.106 215.8C226.893 215.705 226.664 215.657 226.432 215.657L207.13 215.568Z"
        fill="white"
      />
      <path
        d="M116.932 201.234C117.554 234.187 76.3468 235.192 72.3845 210.278C71.5732 205.254 71.4317 193.225 71.96 174.192C71.9977 172.635 72.7524 171.857 74.2241 171.857L82.0071 171.828C82.266 171.824 82.523 171.874 82.7632 171.974C83.0034 172.075 83.222 172.225 83.4063 172.414C83.5907 172.604 83.7371 172.83 83.837 173.08C83.9369 173.329 83.9883 173.597 83.9883 173.867L84.243 208.15C84.2565 210.171 85.0181 212.109 86.3685 213.558C87.7189 215.007 89.5534 215.854 91.4883 215.923L94.6581 216.07C95.9699 216.122 97.2783 215.897 98.5054 215.41C99.7325 214.923 100.853 214.184 101.801 213.235C102.749 212.287 103.505 211.149 104.023 209.889C104.541 208.63 104.812 207.275 104.818 205.904L104.932 175.315C104.935 174.843 105.028 174.376 105.204 173.942C105.38 173.508 105.636 173.114 105.957 172.785C106.278 172.455 106.657 172.195 107.074 172.021C107.491 171.847 107.936 171.761 108.385 171.769L113.96 171.828C115.922 171.847 116.903 172.882 116.903 174.931C116.96 183.265 116.79 192.25 116.932 201.234Z"
        fill="#2E94D4"
      />
      <path
        d="M139.29 196.653C138.29 195.806 137.79 196.122 137.79 197.599L138.017 225.587C138.035 226.553 137.583 227.045 136.658 227.065L127.403 227.183C126.46 227.183 125.988 226.69 125.988 225.705L125.932 173.572C125.932 173.326 125.979 173.083 126.07 172.856C126.162 172.63 126.296 172.426 126.465 172.255C126.634 172.084 126.835 171.95 127.054 171.861C127.274 171.773 127.508 171.731 127.743 171.739L140.394 172.035C141.469 172.054 142.234 172.577 142.686 173.601L154.375 199.757C154.458 199.947 154.592 200.107 154.761 200.218C154.93 200.329 155.128 200.386 155.33 200.383C155.532 200.38 155.731 200.317 155.903 200.2C156.074 200.084 156.212 199.92 156.3 199.727L167.705 173.867C168.252 172.626 169.177 172.005 170.479 172.005L182.988 171.946C184.101 171.946 184.658 172.518 184.658 173.66L184.686 225.676C184.686 226.06 184.537 226.428 184.272 226.7C184.006 226.971 183.647 227.124 183.271 227.124L174.045 227.094C173.101 227.075 172.639 226.582 172.658 225.617L172.771 198.338C172.79 194.24 171.951 194.043 170.252 197.747L160.177 219.735C159.761 220.652 159.111 221.43 158.297 221.984C157.484 222.539 156.539 222.848 155.566 222.879C154.593 222.909 153.629 222.66 152.78 222.157C151.931 221.655 151.23 220.919 150.752 220.031C147.375 213.667 144.045 206.712 140.762 199.166C140.177 197.826 139.686 196.988 139.29 196.653Z"
        fill="#2E94D4"
      />
      <path
        d="M207.13 215.568L226.432 215.657C226.664 215.657 226.893 215.705 227.106 215.799C227.319 215.894 227.512 216.032 227.673 216.205C227.834 216.379 227.96 216.585 228.044 216.811C228.127 217.036 228.166 217.277 228.158 217.519L227.847 225.38C227.832 225.848 227.644 226.291 227.322 226.617C227 226.942 226.569 227.124 226.121 227.124L195.611 227.153C195.153 227.153 194.714 226.963 194.391 226.625C194.067 226.287 193.885 225.829 193.885 225.35L193.687 173.571C193.683 173.33 193.726 173.09 193.813 172.865C193.899 172.641 194.028 172.438 194.192 172.267C194.356 172.096 194.551 171.961 194.765 171.87C194.98 171.78 195.21 171.735 195.441 171.739L203.904 171.828C204.362 171.828 204.801 172.018 205.125 172.356C205.448 172.694 205.63 173.152 205.63 173.63L205.404 213.765C205.404 214.002 205.448 214.236 205.535 214.455C205.622 214.674 205.749 214.873 205.909 215.04C206.07 215.207 206.26 215.34 206.469 215.431C206.679 215.521 206.903 215.568 207.13 215.568Z"
        fill="#2E94D4"
      />
    </svg>
