<svg width="18" height="18" viewBox="0 0 18 18" fill="none" xmlns="http://www.w3.org/2000/svg">
<path d="M17.0078 10.3014L17.1988 8.272C17.3488 6.67816 17.4238 5.88124 17.1512 5.55181C17.0037 5.37361 16.8031 5.26441 16.5887 5.24558C16.1922 5.21076 15.6944 5.7775 14.6987 6.91097C14.1838 7.49716 13.9264 7.79025 13.6392 7.83566C13.4801 7.86075 13.3179 7.83491 13.1709 7.761C12.9057 7.6275 12.7289 7.26518 12.3752 6.54051L10.5112 2.72079C9.84299 1.35143 9.50882 0.666748 9.00032 0.666748C8.49182 0.666748 8.15766 1.35143 7.48941 2.7208L5.62538 6.54051C5.27174 7.26518 5.09491 7.6275 4.82971 7.761C4.68276 7.83491 4.52061 7.86075 4.36146 7.83566C4.07426 7.79025 3.8168 7.49716 3.30188 6.91097C2.30622 5.7775 1.80839 5.21076 1.41198 5.24558C1.19754 5.26441 0.996974 5.37361 0.849482 5.55181C0.576824 5.88124 0.651824 6.67816 0.801832 8.272L0.992824 10.3014C1.30753 13.6452 1.46489 15.3172 2.4504 16.3252C3.43591 17.3334 4.91296 17.3334 7.86707 17.3334H10.1336C13.0877 17.3334 14.5647 17.3334 15.5502 16.3252C16.5357 15.3172 16.6931 13.6452 17.0078 10.3014Z" fill="#FDC709"/>
</svg>
